<?xml version="1.0" encoding="iso-8859-1"?>
<!-- Generator: Adobe Illustrator 19.0.0, SVG Export Plug-In . SVG Version: 6.00 Build 0)  -->
<svg version="1.1" id="Capa_1" xmlns="http://www.w3.org/2000/svg" xmlns:xlink="http://www.w3.org/1999/xlink" x="0px" y="0px"
	 viewBox="0 0 390 390" style="enable-background:new 0 0 390 390;" xml:space="preserve" width="70px" height="76px">
<g id="XMLID_976_">
	<rect id="XMLID_977_" x="74.998" y="97.5" style="fill:#FFDA44;" width="30" height="60"/>
	<rect id="XMLID_45_" x="75.001" y="97.5" style="fill:#FFDA44;" width="240" height="30"/>
	<rect id="XMLID_978_" x="284.999" y="97.5" style="fill:#FFDA44;" width="30" height="60"/>
	<rect id="XMLID_979_" x="90" y="157.5" style="fill:#006DF0;" width="90" height="140"/>
	<rect id="XMLID_980_" y="157.5" style="fill:#0052B4;" width="90" height="140"/>
	<rect id="XMLID_981_" x="75" y="297.5" style="fill:#003778;" width="30" height="50"/>
	<rect id="XMLID_982_" x="40" y="327.5" style="fill:#003778;" width="100" height="30"/>
	<rect id="XMLID_983_" x="30" y="187.5" style="fill:#FFDA44;" width="120" height="80"/>
	<rect id="XMLID_984_" x="300" y="157.5" style="fill:#006DF0;" width="90" height="140"/>
	<rect id="XMLID_985_" x="210" y="157.5" style="fill:#0052B4;" width="90" height="140"/>
	<rect id="XMLID_986_" x="285" y="297.5" style="fill:#003778;" width="30" height="50"/>
	<rect id="XMLID_987_" x="250" y="327.5" style="fill:#003778;" width="100" height="30"/>
	<rect id="XMLID_988_" x="240" y="187.5" style="fill:#FFDA44;" width="120" height="80"/>
	<g id="XMLID_989_">
		<path id="XMLID_990_" style="fill:#AAD3F2;" d="M255,87.5h-0.423c0.273-1.627,0.423-3.295,0.423-5c0-16.568-13.432-30-30-30
			c-3.969,0-7.753,0.777-11.221,2.178C205.953,41.408,191.52,32.5,175,32.5c-24.853,0-45,20.146-45,45
			c0,3.57,0.429,7.039,1.214,10.369C121.98,89.64,115,97.75,115,107.5c0,11.046,8.954,20,20,20h120c11.046,0,20-8.954,20-20
			S266.046,87.5,255,87.5z"/>
		<path id="XMLID_991_" style="fill:#78B9EB;" d="M195,37.186c-6.024-2.996-12.814-4.686-20-4.686c-24.853,0-45,20.146-45,45
			c0,3.57,0.429,7.039,1.214,10.369C121.98,89.64,115,97.75,115,107.5c0,11.046,8.954,20,20,20h60V37.186z"/>
	</g>
</g>
<g>
</g>
<g>
</g>
<g>
</g>
<g>
</g>
<g>
</g>
<g>
</g>
<g>
</g>
<g>
</g>
<g>
</g>
<g>
</g>
<g>
</g>
<g>
</g>
<g>
</g>
<g>
</g>
<g>
</g>
</svg>
