<?xml version="1.0" encoding="utf-8"?>
<!-- Generator: Adobe Illustrator 16.0.0, SVG Export Plug-In . SVG Version: 6.00 Build 0)  -->
<!DOCTYPE svg PUBLIC "-//W3C//DTD SVG 1.1//EN" "http://www.w3.org/Graphics/SVG/1.1/DTD/svg11.dtd">
<svg version="1.1" id="Capa_1" xmlns="http://www.w3.org/2000/svg" xmlns:xlink="http://www.w3.org/1999/xlink" x="0px" y="0px"
	 width="36px" height="36px" viewBox="0 0 36 36" enable-background="new 0 0 36 36" xml:space="preserve">
<g>
	<path id="path1948" fill="#366D9B" d="M17.792,0.366c-1.438,0.006-2.812,0.129-4.021,0.343c-3.562,0.629-4.206,1.945-4.206,4.374
		V8.29h8.413v1.068H9.565H6.407c-2.445,0-4.586,1.471-5.256,4.267c-0.773,3.206-0.808,5.206,0,8.552
		c0.598,2.491,2.025,4.268,4.471,4.268h2.894v-3.846c0-2.776,2.403-5.228,5.257-5.228h8.405c2.34,0,4.207-1.927,4.207-4.274V5.083
		c0-2.28-1.924-3.993-4.207-4.374C20.73,0.468,19.23,0.36,17.792,0.366z M13.241,2.946c0.869,0,1.58,0.721,1.58,1.607
		c0,0.885-0.709,1.598-1.58,1.598c-0.873,0-1.578-0.713-1.578-1.598C11.663,3.667,12.37,2.946,13.241,2.946z"/>
	<path id="path1950" fill="#FFCD40" d="M27.432,9.358v3.736c0,2.897-2.456,5.336-5.256,5.336h-8.405
		c-2.302,0-4.206,1.969-4.206,4.275v8.012c0,2.281,1.982,3.622,4.206,4.276c2.664,0.783,5.218,0.925,8.405,0
		c2.119-0.613,4.207-1.848,4.207-4.276v-3.206h-8.405v-1.068h8.405h4.208c2.445,0,3.355-1.707,4.207-4.267
		c0.878-2.636,0.841-5.171,0-8.552c-0.604-2.434-1.76-4.266-4.207-4.266H27.432L27.432,9.358z M22.704,29.651
		c0.873,0,1.58,0.714,1.58,1.598c0,0.889-0.707,1.607-1.58,1.607c-0.869,0-1.578-0.721-1.578-1.607
		C21.126,30.364,21.835,29.651,22.704,29.651z"/>
</g>
</svg>
